<mxfile host="app.diagrams.net" agent="Mozilla/5.0 (X11; Linux x86_64; rv:136.0) Gecko/20100101 Firefox/136.0" version="26.0.16">
  <diagram name="Page-1" id="qHFTm36FPcgsUzPVWOHj">
    <mxGraphModel dx="942" dy="606" grid="1" gridSize="10" guides="1" tooltips="1" connect="1" arrows="1" fold="1" page="1" pageScale="1" pageWidth="850" pageHeight="1100" math="0" shadow="0">
      <root>
        <mxCell id="0" />
        <mxCell id="1" parent="0" />
        <mxCell id="iQpaz4V291bvClw6e_Ip-3" style="edgeStyle=orthogonalEdgeStyle;rounded=0;orthogonalLoop=1;jettySize=auto;html=1;entryX=0.5;entryY=1;entryDx=0;entryDy=0;" edge="1" parent="1" source="iQpaz4V291bvClw6e_Ip-1" target="iQpaz4V291bvClw6e_Ip-2">
          <mxGeometry relative="1" as="geometry" />
        </mxCell>
        <mxCell id="iQpaz4V291bvClw6e_Ip-5" value="" style="edgeStyle=orthogonalEdgeStyle;rounded=0;orthogonalLoop=1;jettySize=auto;html=1;" edge="1" parent="1" source="iQpaz4V291bvClw6e_Ip-1" target="iQpaz4V291bvClw6e_Ip-4">
          <mxGeometry relative="1" as="geometry" />
        </mxCell>
        <mxCell id="iQpaz4V291bvClw6e_Ip-9" style="edgeStyle=orthogonalEdgeStyle;rounded=0;orthogonalLoop=1;jettySize=auto;html=1;exitX=0.75;exitY=0;exitDx=0;exitDy=0;entryX=0.5;entryY=1;entryDx=0;entryDy=0;" edge="1" parent="1" source="iQpaz4V291bvClw6e_Ip-1" target="iQpaz4V291bvClw6e_Ip-6">
          <mxGeometry relative="1" as="geometry" />
        </mxCell>
        <mxCell id="iQpaz4V291bvClw6e_Ip-11" style="edgeStyle=orthogonalEdgeStyle;rounded=0;orthogonalLoop=1;jettySize=auto;html=1;exitX=0;exitY=0.75;exitDx=0;exitDy=0;entryX=0.5;entryY=0;entryDx=0;entryDy=0;" edge="1" parent="1" source="iQpaz4V291bvClw6e_Ip-1" target="iQpaz4V291bvClw6e_Ip-10">
          <mxGeometry relative="1" as="geometry" />
        </mxCell>
        <mxCell id="iQpaz4V291bvClw6e_Ip-22" style="edgeStyle=orthogonalEdgeStyle;rounded=0;orthogonalLoop=1;jettySize=auto;html=1;exitX=0.5;exitY=1;exitDx=0;exitDy=0;entryX=0.5;entryY=0;entryDx=0;entryDy=0;" edge="1" parent="1" source="iQpaz4V291bvClw6e_Ip-1" target="iQpaz4V291bvClw6e_Ip-21">
          <mxGeometry relative="1" as="geometry" />
        </mxCell>
        <mxCell id="iQpaz4V291bvClw6e_Ip-25" value="&lt;div&gt;N&lt;/div&gt;" style="edgeLabel;html=1;align=center;verticalAlign=middle;resizable=0;points=[];" vertex="1" connectable="0" parent="iQpaz4V291bvClw6e_Ip-22">
          <mxGeometry x="0.5091" y="1" relative="1" as="geometry">
            <mxPoint as="offset" />
          </mxGeometry>
        </mxCell>
        <mxCell id="iQpaz4V291bvClw6e_Ip-1" value="Bubble Tea" style="whiteSpace=wrap;html=1;align=center;" vertex="1" parent="1">
          <mxGeometry x="370" y="300" width="100" height="40" as="geometry" />
        </mxCell>
        <mxCell id="iQpaz4V291bvClw6e_Ip-2" value="&lt;u&gt;name&lt;/u&gt;" style="ellipse;whiteSpace=wrap;html=1;align=center;" vertex="1" parent="1">
          <mxGeometry x="250" y="250" width="100" height="40" as="geometry" />
        </mxCell>
        <mxCell id="iQpaz4V291bvClw6e_Ip-4" value="description" style="ellipse;whiteSpace=wrap;html=1;align=center;" vertex="1" parent="1">
          <mxGeometry x="350" y="220" width="100" height="40" as="geometry" />
        </mxCell>
        <mxCell id="iQpaz4V291bvClw6e_Ip-6" value="ingredients" style="ellipse;shape=doubleEllipse;margin=3;whiteSpace=wrap;html=1;align=center;" vertex="1" parent="1">
          <mxGeometry x="470" y="240" width="100" height="40" as="geometry" />
        </mxCell>
        <mxCell id="iQpaz4V291bvClw6e_Ip-10" value="price" style="ellipse;whiteSpace=wrap;html=1;align=center;" vertex="1" parent="1">
          <mxGeometry x="250" y="350" width="100" height="40" as="geometry" />
        </mxCell>
        <mxCell id="iQpaz4V291bvClw6e_Ip-14" style="edgeStyle=orthogonalEdgeStyle;rounded=0;orthogonalLoop=1;jettySize=auto;html=1;exitX=0;exitY=0.5;exitDx=0;exitDy=0;entryX=1;entryY=0.5;entryDx=0;entryDy=0;" edge="1" parent="1" source="iQpaz4V291bvClw6e_Ip-12" target="iQpaz4V291bvClw6e_Ip-13">
          <mxGeometry relative="1" as="geometry" />
        </mxCell>
        <mxCell id="iQpaz4V291bvClw6e_Ip-18" style="edgeStyle=orthogonalEdgeStyle;rounded=0;orthogonalLoop=1;jettySize=auto;html=1;exitX=0.5;exitY=1;exitDx=0;exitDy=0;entryX=0.5;entryY=0;entryDx=0;entryDy=0;" edge="1" parent="1" source="iQpaz4V291bvClw6e_Ip-12" target="iQpaz4V291bvClw6e_Ip-17">
          <mxGeometry relative="1" as="geometry" />
        </mxCell>
        <mxCell id="iQpaz4V291bvClw6e_Ip-20" style="edgeStyle=orthogonalEdgeStyle;rounded=0;orthogonalLoop=1;jettySize=auto;html=1;exitX=0.5;exitY=1;exitDx=0;exitDy=0;entryX=0;entryY=0.5;entryDx=0;entryDy=0;endArrow=none;startFill=0;" edge="1" parent="1" source="iQpaz4V291bvClw6e_Ip-12" target="iQpaz4V291bvClw6e_Ip-19">
          <mxGeometry relative="1" as="geometry">
            <Array as="points">
              <mxPoint x="490" y="520" />
              <mxPoint x="490" y="600" />
            </Array>
          </mxGeometry>
        </mxCell>
        <mxCell id="iQpaz4V291bvClw6e_Ip-34" style="rounded=0;orthogonalLoop=1;jettySize=auto;html=1;exitX=1;exitY=0.5;exitDx=0;exitDy=0;entryX=0.5;entryY=1;entryDx=0;entryDy=0;" edge="1" parent="1" source="iQpaz4V291bvClw6e_Ip-12" target="iQpaz4V291bvClw6e_Ip-33">
          <mxGeometry relative="1" as="geometry" />
        </mxCell>
        <mxCell id="iQpaz4V291bvClw6e_Ip-37" value="M" style="edgeLabel;html=1;align=center;verticalAlign=middle;resizable=0;points=[];" vertex="1" connectable="0" parent="iQpaz4V291bvClw6e_Ip-34">
          <mxGeometry x="0.1284" y="-5" relative="1" as="geometry">
            <mxPoint as="offset" />
          </mxGeometry>
        </mxCell>
        <mxCell id="iQpaz4V291bvClw6e_Ip-35" style="rounded=0;orthogonalLoop=1;jettySize=auto;html=1;exitX=1;exitY=0.5;exitDx=0;exitDy=0;entryX=0.5;entryY=0;entryDx=0;entryDy=0;" edge="1" parent="1" source="iQpaz4V291bvClw6e_Ip-12" target="iQpaz4V291bvClw6e_Ip-33">
          <mxGeometry relative="1" as="geometry" />
        </mxCell>
        <mxCell id="iQpaz4V291bvClw6e_Ip-12" value="Customer" style="whiteSpace=wrap;html=1;align=center;" vertex="1" parent="1">
          <mxGeometry x="420" y="480" width="100" height="40" as="geometry" />
        </mxCell>
        <mxCell id="iQpaz4V291bvClw6e_Ip-13" value="BubbleID" style="ellipse;whiteSpace=wrap;html=1;align=center;fontStyle=4;" vertex="1" parent="1">
          <mxGeometry x="270" y="480" width="100" height="40" as="geometry" />
        </mxCell>
        <mxCell id="iQpaz4V291bvClw6e_Ip-16" style="edgeStyle=orthogonalEdgeStyle;rounded=0;orthogonalLoop=1;jettySize=auto;html=1;exitX=1;exitY=0.5;exitDx=0;exitDy=0;entryX=0.5;entryY=1;entryDx=0;entryDy=0;" edge="1" parent="1" source="iQpaz4V291bvClw6e_Ip-15" target="iQpaz4V291bvClw6e_Ip-12">
          <mxGeometry relative="1" as="geometry" />
        </mxCell>
        <mxCell id="iQpaz4V291bvClw6e_Ip-15" value="name" style="ellipse;whiteSpace=wrap;html=1;align=center;" vertex="1" parent="1">
          <mxGeometry x="290" y="530" width="100" height="40" as="geometry" />
        </mxCell>
        <mxCell id="iQpaz4V291bvClw6e_Ip-17" value="Phone" style="ellipse;whiteSpace=wrap;html=1;align=center;" vertex="1" parent="1">
          <mxGeometry x="370" y="580" width="100" height="40" as="geometry" />
        </mxCell>
        <mxCell id="iQpaz4V291bvClw6e_Ip-19" value="&lt;div&gt;Email&lt;/div&gt;" style="ellipse;whiteSpace=wrap;html=1;align=center;" vertex="1" parent="1">
          <mxGeometry x="500" y="580" width="100" height="40" as="geometry" />
        </mxCell>
        <mxCell id="iQpaz4V291bvClw6e_Ip-27" style="edgeStyle=orthogonalEdgeStyle;rounded=0;orthogonalLoop=1;jettySize=auto;html=1;exitX=0;exitY=0.5;exitDx=0;exitDy=0;entryX=1;entryY=0.5;entryDx=0;entryDy=0;endArrow=none;startFill=0;" edge="1" parent="1" source="iQpaz4V291bvClw6e_Ip-21" target="iQpaz4V291bvClw6e_Ip-26">
          <mxGeometry relative="1" as="geometry">
            <Array as="points">
              <mxPoint x="530" y="390" />
              <mxPoint x="530" y="390" />
            </Array>
          </mxGeometry>
        </mxCell>
        <mxCell id="iQpaz4V291bvClw6e_Ip-29" style="edgeStyle=orthogonalEdgeStyle;rounded=0;orthogonalLoop=1;jettySize=auto;html=1;exitX=1;exitY=0.5;exitDx=0;exitDy=0;entryX=0;entryY=0.5;entryDx=0;entryDy=0;endArrow=none;startFill=0;" edge="1" parent="1" source="iQpaz4V291bvClw6e_Ip-21" target="iQpaz4V291bvClw6e_Ip-28">
          <mxGeometry relative="1" as="geometry" />
        </mxCell>
        <mxCell id="iQpaz4V291bvClw6e_Ip-32" style="edgeStyle=orthogonalEdgeStyle;rounded=0;orthogonalLoop=1;jettySize=auto;html=1;exitX=0.5;exitY=1;exitDx=0;exitDy=0;endArrow=none;startFill=0;" edge="1" parent="1" source="iQpaz4V291bvClw6e_Ip-21" target="iQpaz4V291bvClw6e_Ip-12">
          <mxGeometry relative="1" as="geometry" />
        </mxCell>
        <mxCell id="iQpaz4V291bvClw6e_Ip-21" value="BUY" style="shape=rhombus;perimeter=rhombusPerimeter;whiteSpace=wrap;html=1;align=center;" vertex="1" parent="1">
          <mxGeometry x="530" y="360" width="120" height="60" as="geometry" />
        </mxCell>
        <mxCell id="iQpaz4V291bvClw6e_Ip-26" value="PrepTime" style="ellipse;whiteSpace=wrap;html=1;align=center;" vertex="1" parent="1">
          <mxGeometry x="380" y="370" width="100" height="40" as="geometry" />
        </mxCell>
        <mxCell id="iQpaz4V291bvClw6e_Ip-28" value="&lt;u&gt;TimeStamp&lt;/u&gt;" style="ellipse;whiteSpace=wrap;html=1;align=center;" vertex="1" parent="1">
          <mxGeometry x="680" y="380" width="100" height="40" as="geometry" />
        </mxCell>
        <mxCell id="iQpaz4V291bvClw6e_Ip-33" value="FRIENDS" style="shape=rhombus;perimeter=rhombusPerimeter;whiteSpace=wrap;html=1;align=center;" vertex="1" parent="1">
          <mxGeometry x="610" y="460" width="120" height="60" as="geometry" />
        </mxCell>
        <mxCell id="iQpaz4V291bvClw6e_Ip-38" value="&lt;div&gt;N&lt;/div&gt;" style="text;html=1;align=center;verticalAlign=middle;resizable=0;points=[];autosize=1;strokeColor=none;fillColor=none;" vertex="1" parent="1">
          <mxGeometry x="586" y="458" width="30" height="30" as="geometry" />
        </mxCell>
        <mxCell id="iQpaz4V291bvClw6e_Ip-39" value="Requestor" style="text;html=1;align=center;verticalAlign=middle;resizable=0;points=[];autosize=1;strokeColor=none;fillColor=none;rotation=15;" vertex="1" parent="1">
          <mxGeometry x="570" y="488" width="80" height="30" as="geometry" />
        </mxCell>
        <mxCell id="iQpaz4V291bvClw6e_Ip-40" value="Requestee" style="text;html=1;align=center;verticalAlign=middle;resizable=0;points=[];autosize=1;strokeColor=none;fillColor=none;rotation=-10;" vertex="1" parent="1">
          <mxGeometry x="590" y="450" width="80" height="30" as="geometry" />
        </mxCell>
      </root>
    </mxGraphModel>
  </diagram>
</mxfile>
